HIERARCHY
ROOT Hips
{
  OFFSET -125.086 92.215 135.881
  CHANNELS 6 Xposition Yposition Zposition Zrotation Xrotation Yrotation
  JOINT LeftUpLeg
  {
    OFFSET 8.64259 1.95398 -2.38835
    CHANNELS 3 Zrotation Xrotation Yrotation
    JOINT LeftLeg
    {
      OFFSET 43.7702 0 0
      CHANNELS 3 Zrotation Xrotation Yrotation
      JOINT LeftFoot
      {
        OFFSET 40.6238 0 0
        CHANNELS 3 Zrotation Xrotation Yrotation
        JOINT LeftToeBase
        {
          OFFSET 12.7242 0 0
          CHANNELS 3 Zrotation Xrotation Yrotation
          End Site
          {
            OFFSET 0 0 0
          }
        }
      }
    }
  }
  JOINT RightUpLeg
  {
    OFFSET -8.2249 1.95398 -2.59336
    CHANNELS 3 Zrotation Xrotation Yrotation
    JOINT RightLeg
    {
      OFFSET 43.5653 0 0
      CHANNELS 3 Zrotation Xrotation Yrotation
      JOINT RightFoot
      {
        OFFSET 40.6238 0 0
        CHANNELS 3 Zrotation Xrotation Yrotation
        JOINT RightToeBase
        {
          OFFSET 12.7242 0 0
          CHANNELS 3 Zrotation Xrotation Yrotation
          End Site
          {
            OFFSET 0 0 0
          }
        }
      }
    }
  }
  JOINT Spine
  {
    OFFSET 0.165834 0.87714 6.61349
    CHANNELS 3 Zrotation Xrotation Yrotation
    JOINT Spine1
    {
      OFFSET 7.38963 1.71661e-005 0
      CHANNELS 3 Zrotation Xrotation Yrotation
      JOINT Spine2
      {
        OFFSET 11.9445 1.14441e-005 0
        CHANNELS 3 Zrotation Xrotation Yrotation
        JOINT Spine3
        {
          OFFSET 14.7254 4.19617e-005 0
          CHANNELS 3 Zrotation Xrotation Yrotation
          JOINT Spine4
          {
            OFFSET 10.9679 0 0
            CHANNELS 3 Zrotation Xrotation Yrotation
            JOINT RightShoulder
            {
              OFFSET 2.46616 -1.6653 3.69651
              CHANNELS 3 Zrotation Xrotation Yrotation
              JOINT RightArm
              {
                OFFSET 13.0012 0 0
                CHANNELS 3 Zrotation Xrotation Yrotation
                JOINT RightForeArm
                {
                  OFFSET 28.7848 1.52588e-005 0
                  CHANNELS 3 Zrotation Xrotation Yrotation
                  JOINT RightHand
                  {
                    OFFSET 26.5688 1.52588e-005 0
                    CHANNELS 3 Zrotation Xrotation Yrotation
                    End Site
                    {
                      OFFSET 0 0 0
                    }
                  }
                }
              }
            }
            JOINT LeftShoulder
            {
              OFFSET 2.38034 -1.29275 -3.7523
              CHANNELS 3 Zrotation Xrotation Yrotation
              JOINT LeftArm
              {
                OFFSET 16.3182 6.10352e-005 0
                CHANNELS 3 Zrotation Xrotation Yrotation
                JOINT LeftForeArm
                {
                  OFFSET 27.0901 0 0
                  CHANNELS 3 Zrotation Xrotation Yrotation
                  JOINT LeftHand
                  {
                    OFFSET 24.5451 1.52588e-005 0
                    CHANNELS 3 Zrotation Xrotation Yrotation
                    End Site
                    {
                      OFFSET 0 0 0
                    }
                  }
                }
              }
            }
            JOINT Neck
            {
              OFFSET 5.0226 -0.0266342 0
              CHANNELS 3 Zrotation Xrotation Yrotation
              JOINT Head
              {
                OFFSET 6.69363 2.86102e-005 0
                CHANNELS 3 Zrotation Xrotation Yrotation
                End Site
                {
                  OFFSET 0 0 0
                }
              }
            }
          }
        }
      }
    }
  }
}
MOTION
Frames:	9
Frame Time:	0.0416667
1.44492 96.7088 -17.7502 112.15 -81.5725 110.745 -174.538 -0.490337 91.1147 -13.3994 6.10475 3.23609 65.6323 6.08879 -3.51986 34.6425 -0.804988 4.72806 174.372 -0.506876 88.6313 -15.929 -3.1502 -0.0468381 70.8159 -7.61748 1.27641 28.3341 0.312493 -2.35775 -0.324916 7.03168 -90.802 12.8016 -1.02901 -1.48035 1.1303 -1.09316 -1.43364 -21.3992 -0.536609 -1.7211 -1.38659 -0.536615 -1.72112 110.668 -52.2181 -69.2871 26.5845 -1.87394 -14.1012 5.36262 -28.3861 -6.49551 -12.4607 -0.745288 1.82322 -72.1206 -48.9367 105.676 -44.6103 -7.14072 -21.969 4.21821 53.8341 0.011171 -4.02362 -0.000805877 -10.5902 5.46243 -1.66336 5.03852 -17.1289 -1.68913 -7.61936 
1.63362 96.7036 -17.7716 111.918 -80.8463 110.109 -174.639 -0.796364 90.7667 -13.1069 6.86971 3.08779 65.222 6.01055 -3.33207 35.0954 -0.840856 4.9948 174.058 -0.464959 88.1757 -16.3918 -3.30763 0.00522683 70.4349 -7.62701 0.243481 29.752 0.0191407 -1.90917 -0.372953 7.00533 -90.9755 12.8506 -1.20775 -1.80543 1.17906 -1.28603 -1.75054 -21.3475 -0.609449 -2.08482 -1.33491 -0.609448 -2.08482 110.897 -52.6491 -69.012 25.2435 -1.99595 -14.1148 5.51907 -27.4265 -6.98409 -14.0787 -0.879207 2.12115 -72.5744 -48.6139 105.01 -45.3227 -7.14586 -21.309 4.46025 53.2219 0.0112069 -3.87797 -0.00211231 -11.0918 5.86936 -1.64606 4.72637 -17.4998 -1.62688 -7.43516 
1.64645 96.7118 -17.7844 110.823 -80.2048 108.594 -174.811 -0.982022 90.4137 -12.7084 7.23712 3.01986 65.0441 5.98709 -3.49613 34.9022 -0.820503 4.7958 173.87 -0.49085 87.7838 -16.5828 -2.91333 -0.0540887 70.6361 -7.57535 0.477933 29.5376 0.102663 -2.40052 -0.403784 6.95829 -91.1872 12.9389 -1.37114 -2.20733 1.26691 -1.46694 -2.14488 -21.2549 -0.644602 -2.51717 -1.24229 -0.644601 -2.51717 110.934 -52.515 -68.9348 24.6523 -1.17589 -14.5082 5.40755 -28.1975 -6.58458 -14.1666 -0.918751 2.39949 -72.8464 -48.4179 104.607 -45.9781 -6.94548 -21.0578 4.46781 53.4557 0.0114009 -3.77716 -0.0129138 -10.6685 6.47945 -1.68501 4.26562 -17.9412 -1.66818 -6.6508 
1.47143 96.7172 -17.8098 110.411 -79.8079 107.621 -175.102 -1.22504 90.0021 -12.2397 7.11218 2.98031 64.807 5.98645 -3.77788 34.6975 -0.794829 4.52974 173.723 -0.204147 87.3476 -17.2651 -1.87449 -0.17335 71.2643 -7.35333 1.57919 29.0881 0.162237 -2.19172 -0.359132 6.96522 -91.3878 12.9206 -1.37856 -2.60888 1.2479 -1.49201 -2.54573 -21.2676 -0.531133 -2.90232 -1.25493 -0.531129 -2.90233 111.154 -52.3013 -68.5694 23.6363 -1.47822 -15.4594 6.05262 -25.9382 -5.92122 -15.1211 -0.837354 1.27931 -72.8179 -49.1179 104.589 -46.1822 -6.79581 -21.878 4.51101 55.1049 0.0119181 -4.21422 0.0116835 -10.7003 7.26057 -1.93296 4.57757 -18.3443 -1.89168 -7.34089 
1.29215 96.6727 -17.8156 111.859 -79.2477 108.339 -175.643 -1.75042 89.356 -12.0462 7.21723 3.0653 64.6401 6.26003 -3.59453 34.8498 -0.812541 4.70407 173.267 -0.121353 86.6101 -18.2791 -1.33609 -0.0970421 71.9702 -7.20874 2.24901 29.0909 0.11523 -1.70792 -0.409195 6.96895 -91.5231 12.908 -1.54263 -2.85939 1.235 -1.66693 -2.78878 -21.2766 -0.61245 -3.19048 -1.26398 -0.612456 -3.19047 110.792 -52.0227 -69.0689 23.183 -1.33706 -15.4448 6.34874 -25.5208 -5.64756 -15.7717 -0.929939 1.68736 -72.7336 -49.3512 104.697 -46.2381 -6.6683 -21.7126 4.49705 54.3054 0.0116329 -4.32428 0.00855531 -10.1814 7.33845 -1.84189 4.9939 -18.6045 -1.77079 -8.11591 
1.05199 96.6312 -17.7474 114.299 -79.2324 110.57 -175.628 -1.99898 89.3721 -12.4078 6.72376 3.05593 64.7237 6.41179 -3.96334 35.2463 -0.844835 4.9574 173.156 -0.158567 86.4742 -19.0283 -1.80626 -0.0797886 72.1369 -7.15391 2.1723 29.1431 0.134286 -2.00243 -0.411519 6.94273 -91.7011 12.9546 -1.63317 -3.20375 1.28092 -1.77252 -3.12887 -21.2243 -0.595502 -3.54603 -1.21161 -0.595502 -3.54603 110.588 -51.7308 -69.3316 22.7126 -1.40647 -14.847 6.41128 -25.267 -5.94638 -16.7224 -1.09629 2.45858 -73.0839 -48.7014 104.216 -46.9352 -6.44338 -20.7629 4.23672 54.057 0.01139 -4.45851 0.0254039 -10.7453 6.93064 -1.94279 4.01367 -18.0223 -1.87943 -6.67921 
0.692116 96.601 -17.6895 115.324 -78.8834 111.2 -175.756 -2.22734 89.28 -12.5288 6.63307 3.03519 64.6206 6.55763 -4.28231 35.5015 -0.868457 5.18422 173.064 -0.313589 86.3371 -19.503 -1.892 -0.114896 72.5441 -7.32119 2.00458 28.9833 0.198022 -2.36187 -0.455572 6.87671 -91.8485 13.0801 -1.7931 -3.47705 1.40592 -1.9443 -3.39488 -21.094 -0.666098 -3.85462 -1.08135 -0.666102 -3.85463 111.159 -51.8227 -68.481 21.4359 -1.39546 -14.7191 6.69661 -24.6157 -5.90403 -16.9727 -1.10387 2.4002 -73.6161 -48.1736 103.436 -47.8651 -6.35384 -19.6916 4.26215 54.2006 0.011116 -5.17306 0.0672666 -10.7633 6.57722 -2.01281 3.66609 -18.2754 -1.8774 -6.50167 
0.323081 96.4963 -17.5819 115.802 -78.5477 111.398 -176.166 -1.95242 89.1684 -13.45 6.02453 3.11934 64.8542 6.92884 -4.65203 36.3022 -0.922472 5.64784 173.004 -0.214659 86.2613 -20.3277 -1.386 -0.0803681 73.2457 -7.22692 2.57037 28.6094 0.294664 -2.66651 -0.532717 6.8462 -92.002 13.1335 -2.0209 -3.75589 1.459 -2.18412 -3.66347 -21.0356 -0.799808 -4.18883 -1.02291 -0.799802 -4.18884 111.188 -51.6722 -68.4128 20.3965 -1.10189 -15.0301 7.08072 -23.6024 -5.2539 -17.7275 -1.09036 1.96592 -73.6219 -48.0375 103.437 -48.3425 -5.85485 -19.6554 3.97797 54.4315 0.0378811 -5.63487 0.103579 -11.184 7.11825 -1.96131 3.38591 -18.919 -1.70605 -6.81285 
-0.0379623 96.3614 -17.4122 119.06 -78.9019 114.783 -176.344 -1.656 89.4115 -15.1745 5.18228 3.24133 65.3684 7.45137 -4.47881 37.4654 -0.974049 5.90288 173.063 -0.457222 86.5297 -20.9453 -1.62114 -0.0512527 73.9759 -7.57797 2.56785 28.0967 0.32237 -2.04979 -0.553604 6.83941 -92.1425 13.1404 -2.13003 -4.02326 1.46527 -2.30491 -3.92581 -21.0231 -0.823791 -4.47649 -1.01043 -0.823799 -4.47649 111.55 -52.251 -67.9645 18.224 -1.31244 -14.8678 7.3158 -22.3456 -6.05036 -17.4338 -1.16574 2.6002 -73.7764 -47.6243 103.228 -48.5486 -5.55406 -19.5739 4.00982 54.9368 -0.385772 -5.02223 0.0653678 -11.1028 6.93273 -1.94541 2.12032 -18.9404 -1.49438 -6.33968 
